%TF.GenerationSoftware,KiCad,Pcbnew,8.0.7*%
%TF.CreationDate,2025-04-09T11:56:33+02:00*%
%TF.ProjectId,PCB_CDFR,5043425f-4344-4465-922e-6b696361645f,rev?*%
%TF.SameCoordinates,Original*%
%TF.FileFunction,Soldermask,Top*%
%TF.FilePolarity,Negative*%
%FSLAX46Y46*%
G04 Gerber Fmt 4.6, Leading zero omitted, Abs format (unit mm)*
G04 Created by KiCad (PCBNEW 8.0.7) date 2025-04-09 11:56:33*
%MOMM*%
%LPD*%
G01*
G04 APERTURE LIST*
G04 Aperture macros list*
%AMRoundRect*
0 Rectangle with rounded corners*
0 $1 Rounding radius*
0 $2 $3 $4 $5 $6 $7 $8 $9 X,Y pos of 4 corners*
0 Add a 4 corners polygon primitive as box body*
4,1,4,$2,$3,$4,$5,$6,$7,$8,$9,$2,$3,0*
0 Add four circle primitives for the rounded corners*
1,1,$1+$1,$2,$3*
1,1,$1+$1,$4,$5*
1,1,$1+$1,$6,$7*
1,1,$1+$1,$8,$9*
0 Add four rect primitives between the rounded corners*
20,1,$1+$1,$2,$3,$4,$5,0*
20,1,$1+$1,$4,$5,$6,$7,0*
20,1,$1+$1,$6,$7,$8,$9,0*
20,1,$1+$1,$8,$9,$2,$3,0*%
G04 Aperture macros list end*
%ADD10RoundRect,0.030000X0.745000X0.270000X-0.745000X0.270000X-0.745000X-0.270000X0.745000X-0.270000X0*%
%ADD11RoundRect,0.135500X-1.219500X-1.564500X1.219500X-1.564500X1.219500X1.564500X-1.219500X1.564500X0*%
%ADD12RoundRect,0.250000X0.450000X-0.350000X0.450000X0.350000X-0.450000X0.350000X-0.450000X-0.350000X0*%
%ADD13R,1.500000X0.900000*%
%ADD14R,0.900000X1.500000*%
%ADD15C,0.600000*%
%ADD16R,3.900000X3.900000*%
%ADD17R,1.700000X1.700000*%
%ADD18O,1.700000X1.700000*%
%ADD19RoundRect,0.250000X-0.475000X0.337500X-0.475000X-0.337500X0.475000X-0.337500X0.475000X0.337500X0*%
%ADD20RoundRect,0.250000X-0.350000X-0.450000X0.350000X-0.450000X0.350000X0.450000X-0.350000X0.450000X0*%
%ADD21RoundRect,0.475000X0.475000X2.075000X-0.475000X2.075000X-0.475000X-2.075000X0.475000X-2.075000X0*%
%ADD22C,3.600000*%
%ADD23C,6.400000*%
%ADD24RoundRect,0.250000X-0.450000X0.350000X-0.450000X-0.350000X0.450000X-0.350000X0.450000X0.350000X0*%
%ADD25RoundRect,0.250000X0.600000X0.725000X-0.600000X0.725000X-0.600000X-0.725000X0.600000X-0.725000X0*%
%ADD26O,1.700000X1.950000*%
%ADD27C,1.300000*%
%ADD28C,1.800000*%
%ADD29C,2.250000*%
%ADD30R,1.400000X1.600000*%
%ADD31C,1.200000*%
%ADD32C,3.030000*%
%ADD33R,0.950000X1.750000*%
%ADD34R,3.200000X1.750000*%
%ADD35RoundRect,0.250000X-0.337500X-0.475000X0.337500X-0.475000X0.337500X0.475000X-0.337500X0.475000X0*%
%ADD36R,0.375000X0.350000*%
%ADD37R,0.350000X0.375000*%
%ADD38RoundRect,0.250000X0.475000X-0.337500X0.475000X0.337500X-0.475000X0.337500X-0.475000X-0.337500X0*%
%ADD39RoundRect,0.250000X-0.325000X-0.450000X0.325000X-0.450000X0.325000X0.450000X-0.325000X0.450000X0*%
%ADD40RoundRect,0.250000X0.337500X0.475000X-0.337500X0.475000X-0.337500X-0.475000X0.337500X-0.475000X0*%
%ADD41C,6.204000*%
%ADD42RoundRect,0.102000X3.000000X-3.000000X3.000000X3.000000X-3.000000X3.000000X-3.000000X-3.000000X0*%
%ADD43C,1.350000*%
%ADD44C,1.700000*%
%ADD45C,1.875000*%
%ADD46C,2.300000*%
%ADD47RoundRect,0.090000X-0.660000X-0.360000X0.660000X-0.360000X0.660000X0.360000X-0.660000X0.360000X0*%
G04 APERTURE END LIST*
D10*
%TO.C,BUCK1*%
X140600000Y-48995000D03*
X140600000Y-50265000D03*
X140600000Y-51535000D03*
X140600000Y-52805000D03*
X146000000Y-52800000D03*
X146000000Y-51530000D03*
X146000000Y-50260000D03*
X146000000Y-48990000D03*
D11*
X143300000Y-50900000D03*
%TD*%
D12*
%TO.C,R6*%
X148900000Y-53900000D03*
X148900000Y-51900000D03*
%TD*%
D13*
%TO.C,U2*%
X101000000Y-58740000D03*
X101000000Y-60010000D03*
X101000000Y-61280000D03*
X101000000Y-62550000D03*
X101000000Y-63820000D03*
X101000000Y-65090000D03*
X101000000Y-66360000D03*
X101000000Y-67630000D03*
X101000000Y-68900000D03*
X101000000Y-70170000D03*
X101000000Y-71440000D03*
X101000000Y-72710000D03*
X101000000Y-73980000D03*
X101000000Y-75250000D03*
D14*
X102765000Y-76500000D03*
X104035000Y-76500000D03*
X105305000Y-76500000D03*
X106575000Y-76500000D03*
X107845000Y-76500000D03*
X109115000Y-76500000D03*
X110385000Y-76500000D03*
X111655000Y-76500000D03*
X112925000Y-76500000D03*
X114195000Y-76500000D03*
X115465000Y-76500000D03*
X116735000Y-76500000D03*
D13*
X118500000Y-75250000D03*
X118500000Y-73980000D03*
X118500000Y-72710000D03*
X118500000Y-71440000D03*
X118500000Y-70170000D03*
X118500000Y-68900000D03*
X118500000Y-67630000D03*
X118500000Y-66360000D03*
X118500000Y-65090000D03*
X118500000Y-63820000D03*
X118500000Y-62550000D03*
X118500000Y-61280000D03*
X118500000Y-60010000D03*
X118500000Y-58740000D03*
D15*
X106850000Y-65760000D03*
X106850000Y-67160000D03*
X107550000Y-65060000D03*
X107550000Y-66460000D03*
X107550000Y-67860000D03*
X108250000Y-65760000D03*
D16*
X108250000Y-66460000D03*
D15*
X108250000Y-67160000D03*
X108950000Y-65060000D03*
X108950000Y-66460000D03*
X108950000Y-67860000D03*
X109650000Y-65760000D03*
X109650000Y-67160000D03*
%TD*%
D12*
%TO.C,R1*%
X137500000Y-90600000D03*
X137500000Y-88600000D03*
%TD*%
D17*
%TO.C,FREE_PIN_1*%
X139600000Y-77975000D03*
D18*
X139600000Y-75435000D03*
X139600000Y-72895000D03*
X139600000Y-70355000D03*
X139600000Y-67815000D03*
X139600000Y-65275000D03*
%TD*%
D19*
%TO.C,C7*%
X137600000Y-53200000D03*
X137600000Y-55275000D03*
%TD*%
D20*
%TO.C,R5*%
X140700000Y-55000000D03*
X142700000Y-55000000D03*
%TD*%
D21*
%TO.C,L1*%
X145300000Y-44200000D03*
X141100000Y-44200000D03*
%TD*%
D17*
%TO.C,GND_1*%
X144800000Y-77975000D03*
D18*
X144800000Y-75435000D03*
X144800000Y-72895000D03*
X144800000Y-70355000D03*
X144800000Y-67815000D03*
X144800000Y-65275000D03*
X144800000Y-62735000D03*
X144800000Y-60195000D03*
%TD*%
D17*
%TO.C,FREE_PIN_3*%
X100700000Y-80000000D03*
D18*
X98160000Y-80000000D03*
%TD*%
D22*
%TO.C,H3*%
X86500000Y-99000000D03*
D23*
X86500000Y-99000000D03*
%TD*%
D20*
%TO.C,RLED1*%
X135900000Y-38950000D03*
X137900000Y-38950000D03*
%TD*%
D24*
%TO.C,R801*%
X123250000Y-70000000D03*
X123250000Y-72000000D03*
%TD*%
D25*
%TO.C,ENC4*%
X118580000Y-98750000D03*
D26*
X116080000Y-98750000D03*
X113580000Y-98750000D03*
X111080000Y-98750000D03*
%TD*%
D27*
%TO.C,UART_HEDGEHOG1*%
X126590000Y-56170000D03*
D28*
X125250000Y-57420000D03*
X125250000Y-54920000D03*
X125250000Y-52420000D03*
D29*
X125250000Y-59590000D03*
X125250000Y-50250000D03*
%TD*%
D25*
%TO.C,ENC1*%
X104500000Y-30250000D03*
D26*
X102000000Y-30250000D03*
X99500000Y-30250000D03*
X97000000Y-30250000D03*
%TD*%
D20*
%TO.C,RLED2*%
X128000000Y-31750000D03*
X130000000Y-31750000D03*
%TD*%
D19*
%TO.C,C1*%
X127000000Y-86462500D03*
X127000000Y-88537500D03*
%TD*%
D30*
%TO.C,SWITCHEN1*%
X130500000Y-84400000D03*
X130500000Y-91600000D03*
X133500000Y-84400000D03*
X133500000Y-91600000D03*
%TD*%
%TO.C,SWITCHBOOT1*%
X148500000Y-91600000D03*
X148500000Y-84400000D03*
X145500000Y-91600000D03*
X145500000Y-84400000D03*
%TD*%
D31*
%TO.C,MINIUSB1*%
X90750000Y-81550000D03*
X89550000Y-82350000D03*
X90750000Y-83150000D03*
X89550000Y-83950000D03*
X90750000Y-84750000D03*
D32*
X85700000Y-79500000D03*
X85700000Y-86800000D03*
%TD*%
D19*
%TO.C,C14*%
X132000000Y-69212500D03*
X132000000Y-71287500D03*
%TD*%
D33*
%TO.C,LDO1*%
X129800000Y-36600000D03*
X127500000Y-36600000D03*
X125200000Y-36600000D03*
D34*
X127500000Y-42900000D03*
%TD*%
D35*
%TO.C,C13*%
X127962500Y-72212500D03*
X130037500Y-72212500D03*
%TD*%
D36*
%TO.C,U1*%
X127975000Y-68962500D03*
X127975000Y-69462500D03*
X127975000Y-69962500D03*
X127975000Y-70462500D03*
D37*
X128487500Y-70475000D03*
X128987500Y-70475000D03*
D36*
X129500000Y-70462500D03*
X129500000Y-69962500D03*
X129500000Y-69462500D03*
X129500000Y-68962500D03*
D37*
X128987500Y-68950000D03*
X128487500Y-68950000D03*
%TD*%
D27*
%TO.C,MOTOR2*%
X113920000Y-41340000D03*
D28*
X112670000Y-40000000D03*
X115170000Y-40000000D03*
X117670000Y-40000000D03*
D29*
X110500000Y-40000000D03*
X119840000Y-40000000D03*
%TD*%
D38*
%TO.C,C8*%
X148900000Y-49937500D03*
X148900000Y-47862500D03*
%TD*%
D39*
%TO.C,LED1*%
X135900000Y-41950000D03*
X137950000Y-41950000D03*
%TD*%
D17*
%TO.C,5V_1*%
X142200000Y-77975000D03*
D18*
X142200000Y-75435000D03*
X142200000Y-72895000D03*
X142200000Y-70355000D03*
X142200000Y-67815000D03*
X142200000Y-65275000D03*
X142200000Y-62735000D03*
X142200000Y-60195000D03*
%TD*%
D35*
%TO.C,C15*%
X129462500Y-67212500D03*
X131537500Y-67212500D03*
%TD*%
D24*
%TO.C,R8*%
X141500000Y-88600000D03*
X141500000Y-90600000D03*
%TD*%
D40*
%TO.C,C5*%
X133100000Y-95000000D03*
X131025000Y-95000000D03*
%TD*%
D25*
%TO.C,ENC2*%
X118750000Y-30250000D03*
D26*
X116250000Y-30250000D03*
X113750000Y-30250000D03*
X111250000Y-30250000D03*
%TD*%
D19*
%TO.C,C9*%
X138000000Y-45162500D03*
X138000000Y-47237500D03*
%TD*%
D22*
%TO.C,H1*%
X86500000Y-29000000D03*
D23*
X86500000Y-29000000D03*
%TD*%
D19*
%TO.C,C12*%
X134000000Y-69212500D03*
X134000000Y-71287500D03*
%TD*%
D12*
%TO.C,R2*%
X137500000Y-51337500D03*
X137500000Y-49337500D03*
%TD*%
D27*
%TO.C,MOTOR1*%
X99670000Y-41340000D03*
D28*
X98420000Y-40000000D03*
X100920000Y-40000000D03*
X103420000Y-40000000D03*
D29*
X96250000Y-40000000D03*
X105590000Y-40000000D03*
%TD*%
D22*
%TO.C,H2*%
X136000000Y-29000000D03*
D23*
X136000000Y-29000000D03*
%TD*%
D12*
%TO.C,R7*%
X145700000Y-57000000D03*
X145700000Y-55000000D03*
%TD*%
D41*
%TO.C,POWER_1*%
X145750000Y-28800000D03*
D42*
X145750000Y-36000000D03*
%TD*%
D17*
%TO.C,3V3_1*%
X147400000Y-77975000D03*
D18*
X147400000Y-75435000D03*
X147400000Y-72895000D03*
X147400000Y-70355000D03*
X147400000Y-67815000D03*
X147400000Y-65275000D03*
X147400000Y-62735000D03*
X147400000Y-60195000D03*
%TD*%
D22*
%TO.C,H4*%
X140000000Y-99000000D03*
D23*
X140000000Y-99000000D03*
%TD*%
D27*
%TO.C,URGENCE1*%
X88090000Y-69250000D03*
D28*
X86750000Y-70500000D03*
X86750000Y-68000000D03*
X86750000Y-65500000D03*
D29*
X86750000Y-72670000D03*
X86750000Y-63330000D03*
%TD*%
D17*
%TO.C,FREE_PIN_2*%
X111875000Y-47900000D03*
D18*
X109335000Y-47900000D03*
%TD*%
D24*
%TO.C,R3*%
X135000000Y-49337500D03*
X135000000Y-51337500D03*
%TD*%
D43*
%TO.C,UART_LIDAR1*%
X88500000Y-52100000D03*
D44*
X87160000Y-55850000D03*
D45*
X87160000Y-53350000D03*
X87160000Y-50850000D03*
D44*
X87160000Y-48350000D03*
D46*
X87160000Y-58020000D03*
X87160000Y-46180000D03*
%TD*%
D24*
%TO.C,R800*%
X125250000Y-69000000D03*
X125250000Y-71000000D03*
%TD*%
D19*
%TO.C,C10*%
X135500000Y-45125000D03*
X135500000Y-47200000D03*
%TD*%
D40*
%TO.C,C6*%
X133037500Y-97500000D03*
X130962500Y-97500000D03*
%TD*%
D27*
%TO.C,MOTOR3*%
X99500000Y-86340000D03*
D28*
X98250000Y-85000000D03*
X100750000Y-85000000D03*
X103250000Y-85000000D03*
D29*
X96080000Y-85000000D03*
X105420000Y-85000000D03*
%TD*%
D38*
%TO.C,C3*%
X125500000Y-33825000D03*
X125500000Y-31750000D03*
%TD*%
D40*
%TO.C,C2*%
X130037500Y-34250000D03*
X127962500Y-34250000D03*
%TD*%
D39*
%TO.C,LED2*%
X125500000Y-29250000D03*
X127550000Y-29250000D03*
%TD*%
D47*
%TO.C,D2*%
X137000000Y-82950000D03*
X137000000Y-86250000D03*
X141900000Y-86250000D03*
X141900000Y-82950000D03*
%TD*%
D25*
%TO.C,ENC3*%
X104670000Y-98750000D03*
D26*
X102170000Y-98750000D03*
X99670000Y-98750000D03*
X97170000Y-98750000D03*
%TD*%
D27*
%TO.C,MOTOR4*%
X113750000Y-86340000D03*
D28*
X112500000Y-85000000D03*
X115000000Y-85000000D03*
X117500000Y-85000000D03*
D29*
X110330000Y-85000000D03*
X119670000Y-85000000D03*
%TD*%
D19*
%TO.C,C4*%
X134900000Y-53200000D03*
X134900000Y-55275000D03*
%TD*%
D38*
%TO.C,C11*%
X124500000Y-88600000D03*
X124500000Y-86525000D03*
%TD*%
M02*
