M48
; DRILL file {KiCad 8.0.7} date 2025-04-09T11:56:27+0200
; FORMAT={-:-/ absolute / inch / decimal}
; #@! TF.CreationDate,2025-04-09T11:56:27+02:00
; #@! TF.GenerationSoftware,Kicad,Pcbnew,8.0.7
; #@! TF.FileFunction,Plated,1,2,PTH
FMAT,2
INCH
; #@! TA.AperFunction,Plated,PTH,ComponentDrill
T1C0.0079
; #@! TA.AperFunction,Plated,PTH,ViaDrill
T2C0.0118
; #@! TA.AperFunction,Plated,PTH,ComponentDrill
T3C0.0276
; #@! TA.AperFunction,Plated,PTH,ComponentDrill
T4C0.0374
; #@! TA.AperFunction,Plated,PTH,ComponentDrill
T5C0.0394
; #@! TA.AperFunction,Plated,PTH,ComponentDrill
T6C0.0472
; #@! TA.AperFunction,Plated,PTH,ComponentDrill
T7C0.0492
; #@! TA.AperFunction,Plated,PTH,ComponentDrill
T8C0.0630
; #@! TA.AperFunction,Plated,PTH,ComponentDrill
T9C0.0650
; #@! TA.AperFunction,Plated,PTH,ComponentDrill
T10C0.0795
; #@! TA.AperFunction,Plated,PTH,ComponentDrill
T11C0.1260
; #@! TA.AperFunction,Plated,PTH,ComponentDrill
T12C0.1791
%
G90
G05
T1
X4.2067Y-2.589
X4.2067Y-2.6441
X4.2343Y-2.5614
X4.2343Y-2.6165
X4.2343Y-2.6717
X4.2618Y-2.589
X4.2618Y-2.6441
X4.2894Y-2.5614
X4.2894Y-2.6165
X4.2894Y-2.6717
X4.3169Y-2.589
X4.3169Y-2.6441
T2
X3.4291Y-2.9882
X3.6142Y-3.6693
X3.6772Y-3.1063
X3.7874Y-2.0079
X3.8858Y-3.063
X3.9764Y-3.2047
X4.0787Y-3.0945
X4.1142Y-2.6575
X4.1299Y-3.4882
X4.1457Y-1.4331
X4.1575Y-1.8819
X4.374Y-3.4882
X4.4173Y-1.4331
X4.4331Y-3.1024
X4.5118Y-1.8819
X4.6063Y-1.8622
X4.7598Y-1.9173
X4.7677Y-2.8583
X4.8228Y-3.4547
X4.8504Y-1.8583
X4.9291Y-1.5512
X4.9331Y-2.8583
X4.9508Y-3.0315
X4.9961Y-2.748
X5.0118Y-2.6142
X5.126Y-2.3583
X5.2244Y-2.8701
X5.2677Y-1.6732
X5.2795Y-2.937
X5.5394Y-1.5157
X5.6378Y-1.7953
X5.6988Y-3.2087
X5.9173Y-2.9213
T3
X3.5256Y-3.2421
X3.5256Y-3.3051
X3.5728Y-3.2106
X3.5728Y-3.2736
X3.5728Y-3.3366
T4
X3.8189Y-1.1909
X3.8256Y-3.8878
X3.9173Y-1.1909
X3.924Y-3.8878
X4.0157Y-1.1909
X4.0224Y-3.8878
X4.1142Y-1.1909
X4.1209Y-3.8878
X4.3732Y-3.8878
X4.3799Y-1.1909
X4.4717Y-3.8878
X4.4783Y-1.1909
X4.5701Y-3.8878
X4.5768Y-1.1909
X4.6685Y-3.8878
X4.6752Y-1.1909
T5
X3.8646Y-3.1496
X3.9646Y-3.1496
X4.3045Y-1.8858
X4.4045Y-1.8858
X5.4961Y-2.5699
X5.4961Y-2.6699
X5.4961Y-2.7699
X5.4961Y-2.8699
X5.4961Y-2.9699
X5.4961Y-3.0699
X5.5984Y-2.3699
X5.5984Y-2.4699
X5.5984Y-2.5699
X5.5984Y-2.6699
X5.5984Y-2.7699
X5.5984Y-2.8699
X5.5984Y-2.9699
X5.5984Y-3.0699
X5.7008Y-2.3699
X5.7008Y-2.4699
X5.7008Y-2.5699
X5.7008Y-2.6699
X5.7008Y-2.7699
X5.7008Y-2.8699
X5.7008Y-2.9699
X5.7008Y-3.0699
X5.8031Y-2.3699
X5.8031Y-2.4699
X5.8031Y-2.5699
X5.8031Y-2.6699
X5.8031Y-2.7699
X5.8031Y-2.8699
X5.8031Y-2.9699
X5.8031Y-3.0699
T6
X3.4154Y-2.5787
X3.4154Y-2.6772
X3.4154Y-2.7756
X3.8681Y-3.3465
X3.8748Y-1.5748
X3.9665Y-3.3465
X3.9732Y-1.5748
X4.065Y-3.3465
X4.0717Y-1.5748
X4.4291Y-3.3465
X4.4358Y-1.5748
X4.5276Y-3.3465
X4.5343Y-1.5748
X4.626Y-3.3465
X4.6327Y-1.5748
X4.9311Y-2.0638
X4.9311Y-2.1622
X4.9311Y-2.2606
T7
X3.4315Y-1.9035
X3.4315Y-2.002
X3.4315Y-2.1004
X3.4315Y-2.1988
T8
X3.4154Y-2.4933
X3.4154Y-2.861
X3.7827Y-3.3465
X3.7894Y-1.5748
X4.1504Y-3.3465
X4.1571Y-1.5748
X4.3437Y-3.3465
X4.3504Y-1.5748
X4.7114Y-3.3465
X4.7181Y-1.5748
X4.9311Y-1.9783
X4.9311Y-2.3461
T9
X3.4315Y-1.8181
X3.4315Y-2.2843
T10
X3.374Y-3.1299
X3.374Y-3.4173
T11
X3.4055Y-1.1417
X3.4055Y-3.8976
X5.3543Y-1.1417
X5.5118Y-3.8976
T12
X5.7382Y-1.1339
X5.7382Y-1.4173
M30
