%TF.GenerationSoftware,KiCad,Pcbnew,8.0.7*%
%TF.CreationDate,2025-04-09T11:56:33+02:00*%
%TF.ProjectId,PCB_CDFR,5043425f-4344-4465-922e-6b696361645f,rev?*%
%TF.SameCoordinates,Original*%
%TF.FileFunction,Paste,Top*%
%TF.FilePolarity,Positive*%
%FSLAX46Y46*%
G04 Gerber Fmt 4.6, Leading zero omitted, Abs format (unit mm)*
G04 Created by KiCad (PCBNEW 8.0.7) date 2025-04-09 11:56:33*
%MOMM*%
%LPD*%
G01*
G04 APERTURE LIST*
G04 Aperture macros list*
%AMRoundRect*
0 Rectangle with rounded corners*
0 $1 Rounding radius*
0 $2 $3 $4 $5 $6 $7 $8 $9 X,Y pos of 4 corners*
0 Add a 4 corners polygon primitive as box body*
4,1,4,$2,$3,$4,$5,$6,$7,$8,$9,$2,$3,0*
0 Add four circle primitives for the rounded corners*
1,1,$1+$1,$2,$3*
1,1,$1+$1,$4,$5*
1,1,$1+$1,$6,$7*
1,1,$1+$1,$8,$9*
0 Add four rect primitives between the rounded corners*
20,1,$1+$1,$2,$3,$4,$5,0*
20,1,$1+$1,$4,$5,$6,$7,0*
20,1,$1+$1,$6,$7,$8,$9,0*
20,1,$1+$1,$8,$9,$2,$3,0*%
G04 Aperture macros list end*
%ADD10RoundRect,0.030000X0.745000X0.270000X-0.745000X0.270000X-0.745000X-0.270000X0.745000X-0.270000X0*%
%ADD11RoundRect,0.135500X-1.219500X-1.564500X1.219500X-1.564500X1.219500X1.564500X-1.219500X1.564500X0*%
%ADD12RoundRect,0.250000X0.450000X-0.350000X0.450000X0.350000X-0.450000X0.350000X-0.450000X-0.350000X0*%
%ADD13R,0.900000X0.900000*%
%ADD14R,1.500000X0.900000*%
%ADD15R,0.900000X1.500000*%
%ADD16RoundRect,0.250000X-0.475000X0.337500X-0.475000X-0.337500X0.475000X-0.337500X0.475000X0.337500X0*%
%ADD17RoundRect,0.250000X-0.350000X-0.450000X0.350000X-0.450000X0.350000X0.450000X-0.350000X0.450000X0*%
%ADD18RoundRect,0.475000X0.475000X2.075000X-0.475000X2.075000X-0.475000X-2.075000X0.475000X-2.075000X0*%
%ADD19RoundRect,0.250000X-0.450000X0.350000X-0.450000X-0.350000X0.450000X-0.350000X0.450000X0.350000X0*%
%ADD20R,1.400000X1.600000*%
%ADD21R,0.950000X1.750000*%
%ADD22R,3.200000X1.750000*%
%ADD23RoundRect,0.250000X-0.337500X-0.475000X0.337500X-0.475000X0.337500X0.475000X-0.337500X0.475000X0*%
%ADD24R,0.375000X0.350000*%
%ADD25R,0.350000X0.375000*%
%ADD26RoundRect,0.250000X0.475000X-0.337500X0.475000X0.337500X-0.475000X0.337500X-0.475000X-0.337500X0*%
%ADD27RoundRect,0.250000X-0.325000X-0.450000X0.325000X-0.450000X0.325000X0.450000X-0.325000X0.450000X0*%
%ADD28RoundRect,0.250000X0.337500X0.475000X-0.337500X0.475000X-0.337500X-0.475000X0.337500X-0.475000X0*%
%ADD29RoundRect,0.090000X-0.660000X-0.360000X0.660000X-0.360000X0.660000X0.360000X-0.660000X0.360000X0*%
G04 APERTURE END LIST*
D10*
%TO.C,BUCK1*%
X140600000Y-48995000D03*
X140600000Y-50265000D03*
X140600000Y-51535000D03*
X140600000Y-52805000D03*
X146000000Y-52800000D03*
X146000000Y-51530000D03*
X146000000Y-50260000D03*
X146000000Y-48990000D03*
D11*
X143300000Y-50900000D03*
%TD*%
D12*
%TO.C,R6*%
X148900000Y-53900000D03*
X148900000Y-51900000D03*
%TD*%
D13*
%TO.C,U2*%
X106850000Y-65060000D03*
X106850000Y-66460000D03*
X106850000Y-67860000D03*
X108250000Y-65060000D03*
X108250000Y-66460000D03*
X108250000Y-67860000D03*
X109650000Y-65060000D03*
X109650000Y-66460000D03*
X109650000Y-67860000D03*
D14*
X101000000Y-58740000D03*
X101000000Y-60010000D03*
X101000000Y-61280000D03*
X101000000Y-62550000D03*
X101000000Y-63820000D03*
X101000000Y-65090000D03*
X101000000Y-66360000D03*
X101000000Y-67630000D03*
X101000000Y-68900000D03*
X101000000Y-70170000D03*
X101000000Y-71440000D03*
X101000000Y-72710000D03*
X101000000Y-73980000D03*
X101000000Y-75250000D03*
D15*
X102765000Y-76500000D03*
X104035000Y-76500000D03*
X105305000Y-76500000D03*
X106575000Y-76500000D03*
X107845000Y-76500000D03*
X109115000Y-76500000D03*
X110385000Y-76500000D03*
X111655000Y-76500000D03*
X112925000Y-76500000D03*
X114195000Y-76500000D03*
X115465000Y-76500000D03*
X116735000Y-76500000D03*
D14*
X118500000Y-75250000D03*
X118500000Y-73980000D03*
X118500000Y-72710000D03*
X118500000Y-71440000D03*
X118500000Y-70170000D03*
X118500000Y-68900000D03*
X118500000Y-67630000D03*
X118500000Y-66360000D03*
X118500000Y-65090000D03*
X118500000Y-63820000D03*
X118500000Y-62550000D03*
X118500000Y-61280000D03*
X118500000Y-60010000D03*
X118500000Y-58740000D03*
%TD*%
D12*
%TO.C,R1*%
X137500000Y-90600000D03*
X137500000Y-88600000D03*
%TD*%
D16*
%TO.C,C7*%
X137600000Y-53200000D03*
X137600000Y-55275000D03*
%TD*%
D17*
%TO.C,R5*%
X140700000Y-55000000D03*
X142700000Y-55000000D03*
%TD*%
D18*
%TO.C,L1*%
X145300000Y-44200000D03*
X141100000Y-44200000D03*
%TD*%
D17*
%TO.C,RLED1*%
X135900000Y-38950000D03*
X137900000Y-38950000D03*
%TD*%
D19*
%TO.C,R801*%
X123250000Y-70000000D03*
X123250000Y-72000000D03*
%TD*%
D17*
%TO.C,RLED2*%
X128000000Y-31750000D03*
X130000000Y-31750000D03*
%TD*%
D16*
%TO.C,C1*%
X127000000Y-86462500D03*
X127000000Y-88537500D03*
%TD*%
D20*
%TO.C,SWITCHEN1*%
X130500000Y-84400000D03*
X130500000Y-91600000D03*
X133500000Y-84400000D03*
X133500000Y-91600000D03*
%TD*%
%TO.C,SWITCHBOOT1*%
X148500000Y-91600000D03*
X148500000Y-84400000D03*
X145500000Y-91600000D03*
X145500000Y-84400000D03*
%TD*%
D16*
%TO.C,C14*%
X132000000Y-69212500D03*
X132000000Y-71287500D03*
%TD*%
D21*
%TO.C,LDO1*%
X129800000Y-36600000D03*
X127500000Y-36600000D03*
X125200000Y-36600000D03*
D22*
X127500000Y-42900000D03*
%TD*%
D23*
%TO.C,C13*%
X127962500Y-72212500D03*
X130037500Y-72212500D03*
%TD*%
D24*
%TO.C,U1*%
X127975000Y-68962500D03*
X127975000Y-69462500D03*
X127975000Y-69962500D03*
X127975000Y-70462500D03*
D25*
X128487500Y-70475000D03*
X128987500Y-70475000D03*
D24*
X129500000Y-70462500D03*
X129500000Y-69962500D03*
X129500000Y-69462500D03*
X129500000Y-68962500D03*
D25*
X128987500Y-68950000D03*
X128487500Y-68950000D03*
%TD*%
D26*
%TO.C,C8*%
X148900000Y-49937500D03*
X148900000Y-47862500D03*
%TD*%
D27*
%TO.C,LED1*%
X135900000Y-41950000D03*
X137950000Y-41950000D03*
%TD*%
D23*
%TO.C,C15*%
X129462500Y-67212500D03*
X131537500Y-67212500D03*
%TD*%
D19*
%TO.C,R8*%
X141500000Y-88600000D03*
X141500000Y-90600000D03*
%TD*%
D28*
%TO.C,C5*%
X133100000Y-95000000D03*
X131025000Y-95000000D03*
%TD*%
D16*
%TO.C,C9*%
X138000000Y-45162500D03*
X138000000Y-47237500D03*
%TD*%
%TO.C,C12*%
X134000000Y-69212500D03*
X134000000Y-71287500D03*
%TD*%
D12*
%TO.C,R2*%
X137500000Y-51337500D03*
X137500000Y-49337500D03*
%TD*%
%TO.C,R7*%
X145700000Y-57000000D03*
X145700000Y-55000000D03*
%TD*%
D19*
%TO.C,R3*%
X135000000Y-49337500D03*
X135000000Y-51337500D03*
%TD*%
%TO.C,R800*%
X125250000Y-69000000D03*
X125250000Y-71000000D03*
%TD*%
D16*
%TO.C,C10*%
X135500000Y-45125000D03*
X135500000Y-47200000D03*
%TD*%
D28*
%TO.C,C6*%
X133037500Y-97500000D03*
X130962500Y-97500000D03*
%TD*%
D26*
%TO.C,C3*%
X125500000Y-33825000D03*
X125500000Y-31750000D03*
%TD*%
D28*
%TO.C,C2*%
X130037500Y-34250000D03*
X127962500Y-34250000D03*
%TD*%
D27*
%TO.C,LED2*%
X125500000Y-29250000D03*
X127550000Y-29250000D03*
%TD*%
D29*
%TO.C,D2*%
X137000000Y-82950000D03*
X137000000Y-86250000D03*
X141900000Y-86250000D03*
X141900000Y-82950000D03*
%TD*%
D16*
%TO.C,C4*%
X134900000Y-53200000D03*
X134900000Y-55275000D03*
%TD*%
D26*
%TO.C,C11*%
X124500000Y-88600000D03*
X124500000Y-86525000D03*
%TD*%
M02*
