%TF.GenerationSoftware,KiCad,Pcbnew,8.0.7*%
%TF.CreationDate,2025-04-09T11:56:33+02:00*%
%TF.ProjectId,PCB_CDFR,5043425f-4344-4465-922e-6b696361645f,rev?*%
%TF.SameCoordinates,Original*%
%TF.FileFunction,Soldermask,Bot*%
%TF.FilePolarity,Negative*%
%FSLAX46Y46*%
G04 Gerber Fmt 4.6, Leading zero omitted, Abs format (unit mm)*
G04 Created by KiCad (PCBNEW 8.0.7) date 2025-04-09 11:56:33*
%MOMM*%
%LPD*%
G01*
G04 APERTURE LIST*
G04 Aperture macros list*
%AMRoundRect*
0 Rectangle with rounded corners*
0 $1 Rounding radius*
0 $2 $3 $4 $5 $6 $7 $8 $9 X,Y pos of 4 corners*
0 Add a 4 corners polygon primitive as box body*
4,1,4,$2,$3,$4,$5,$6,$7,$8,$9,$2,$3,0*
0 Add four circle primitives for the rounded corners*
1,1,$1+$1,$2,$3*
1,1,$1+$1,$4,$5*
1,1,$1+$1,$6,$7*
1,1,$1+$1,$8,$9*
0 Add four rect primitives between the rounded corners*
20,1,$1+$1,$2,$3,$4,$5,0*
20,1,$1+$1,$4,$5,$6,$7,0*
20,1,$1+$1,$6,$7,$8,$9,0*
20,1,$1+$1,$8,$9,$2,$3,0*%
G04 Aperture macros list end*
%ADD10R,1.700000X1.700000*%
%ADD11O,1.700000X1.700000*%
%ADD12C,3.600000*%
%ADD13C,6.400000*%
%ADD14RoundRect,0.250000X0.600000X0.725000X-0.600000X0.725000X-0.600000X-0.725000X0.600000X-0.725000X0*%
%ADD15O,1.700000X1.950000*%
%ADD16C,1.300000*%
%ADD17C,1.800000*%
%ADD18C,2.250000*%
%ADD19C,1.200000*%
%ADD20C,3.030000*%
%ADD21C,6.204000*%
%ADD22RoundRect,0.102000X3.000000X-3.000000X3.000000X3.000000X-3.000000X3.000000X-3.000000X-3.000000X0*%
%ADD23C,1.350000*%
%ADD24C,1.700000*%
%ADD25C,1.875000*%
%ADD26C,2.300000*%
G04 APERTURE END LIST*
D10*
%TO.C,FREE_PIN_1*%
X139600000Y-77975000D03*
D11*
X139600000Y-75435000D03*
X139600000Y-72895000D03*
X139600000Y-70355000D03*
X139600000Y-67815000D03*
X139600000Y-65275000D03*
%TD*%
D10*
%TO.C,GND_1*%
X144800000Y-77975000D03*
D11*
X144800000Y-75435000D03*
X144800000Y-72895000D03*
X144800000Y-70355000D03*
X144800000Y-67815000D03*
X144800000Y-65275000D03*
X144800000Y-62735000D03*
X144800000Y-60195000D03*
%TD*%
D10*
%TO.C,FREE_PIN_3*%
X100700000Y-80000000D03*
D11*
X98160000Y-80000000D03*
%TD*%
D12*
%TO.C,H3*%
X86500000Y-99000000D03*
D13*
X86500000Y-99000000D03*
%TD*%
D14*
%TO.C,ENC4*%
X118580000Y-98750000D03*
D15*
X116080000Y-98750000D03*
X113580000Y-98750000D03*
X111080000Y-98750000D03*
%TD*%
D16*
%TO.C,UART_HEDGEHOG1*%
X126590000Y-56170000D03*
D17*
X125250000Y-57420000D03*
X125250000Y-54920000D03*
X125250000Y-52420000D03*
D18*
X125250000Y-59590000D03*
X125250000Y-50250000D03*
%TD*%
D14*
%TO.C,ENC1*%
X104500000Y-30250000D03*
D15*
X102000000Y-30250000D03*
X99500000Y-30250000D03*
X97000000Y-30250000D03*
%TD*%
D19*
%TO.C,MINIUSB1*%
X90750000Y-81550000D03*
X89550000Y-82350000D03*
X90750000Y-83150000D03*
X89550000Y-83950000D03*
X90750000Y-84750000D03*
D20*
X85700000Y-79500000D03*
X85700000Y-86800000D03*
%TD*%
D16*
%TO.C,MOTOR2*%
X113920000Y-41340000D03*
D17*
X112670000Y-40000000D03*
X115170000Y-40000000D03*
X117670000Y-40000000D03*
D18*
X110500000Y-40000000D03*
X119840000Y-40000000D03*
%TD*%
D10*
%TO.C,5V_1*%
X142200000Y-77975000D03*
D11*
X142200000Y-75435000D03*
X142200000Y-72895000D03*
X142200000Y-70355000D03*
X142200000Y-67815000D03*
X142200000Y-65275000D03*
X142200000Y-62735000D03*
X142200000Y-60195000D03*
%TD*%
D14*
%TO.C,ENC2*%
X118750000Y-30250000D03*
D15*
X116250000Y-30250000D03*
X113750000Y-30250000D03*
X111250000Y-30250000D03*
%TD*%
D12*
%TO.C,H1*%
X86500000Y-29000000D03*
D13*
X86500000Y-29000000D03*
%TD*%
D16*
%TO.C,MOTOR1*%
X99670000Y-41340000D03*
D17*
X98420000Y-40000000D03*
X100920000Y-40000000D03*
X103420000Y-40000000D03*
D18*
X96250000Y-40000000D03*
X105590000Y-40000000D03*
%TD*%
D12*
%TO.C,H2*%
X136000000Y-29000000D03*
D13*
X136000000Y-29000000D03*
%TD*%
D21*
%TO.C,POWER_1*%
X145750000Y-28800000D03*
D22*
X145750000Y-36000000D03*
%TD*%
D10*
%TO.C,3V3_1*%
X147400000Y-77975000D03*
D11*
X147400000Y-75435000D03*
X147400000Y-72895000D03*
X147400000Y-70355000D03*
X147400000Y-67815000D03*
X147400000Y-65275000D03*
X147400000Y-62735000D03*
X147400000Y-60195000D03*
%TD*%
D12*
%TO.C,H4*%
X140000000Y-99000000D03*
D13*
X140000000Y-99000000D03*
%TD*%
D16*
%TO.C,URGENCE1*%
X88090000Y-69250000D03*
D17*
X86750000Y-70500000D03*
X86750000Y-68000000D03*
X86750000Y-65500000D03*
D18*
X86750000Y-72670000D03*
X86750000Y-63330000D03*
%TD*%
D10*
%TO.C,FREE_PIN_2*%
X111875000Y-47900000D03*
D11*
X109335000Y-47900000D03*
%TD*%
D23*
%TO.C,UART_LIDAR1*%
X88500000Y-52100000D03*
D24*
X87160000Y-55850000D03*
D25*
X87160000Y-53350000D03*
X87160000Y-50850000D03*
D24*
X87160000Y-48350000D03*
D26*
X87160000Y-58020000D03*
X87160000Y-46180000D03*
%TD*%
D16*
%TO.C,MOTOR3*%
X99500000Y-86340000D03*
D17*
X98250000Y-85000000D03*
X100750000Y-85000000D03*
X103250000Y-85000000D03*
D18*
X96080000Y-85000000D03*
X105420000Y-85000000D03*
%TD*%
D14*
%TO.C,ENC3*%
X104670000Y-98750000D03*
D15*
X102170000Y-98750000D03*
X99670000Y-98750000D03*
X97170000Y-98750000D03*
%TD*%
D16*
%TO.C,MOTOR4*%
X113750000Y-86340000D03*
D17*
X112500000Y-85000000D03*
X115000000Y-85000000D03*
X117500000Y-85000000D03*
D18*
X110330000Y-85000000D03*
X119670000Y-85000000D03*
%TD*%
M02*
